<svg xmlns="http://www.w3.org/2000/svg" viewBox="0 0 900 720">
  <rect width="900" height="720" fill="#edf7fb"/>
  <path d="M0 600c100-44 200-58 300-33s202 80 323 47 190-85 277-52v158H0Z" fill="#d7edf6"/>
  <path d="M130 270 428 98l300 172v278H130Z" fill="#ffffff" stroke="#101b2b" stroke-width="12" stroke-linejoin="round"/>
  <path d="M428 98 118 276l-32-56L428 24l346 196-34 56Z" fill="#b9854f"/>
  <rect x="205" y="342" width="120" height="160" rx="8" fill="#dce6ea"/>
  <rect x="392" y="332" width="160" height="112" rx="8" fill="#cfeaf6" stroke="#101b2b" stroke-width="8"/>
  <path d="M472 332v112M392 388h160" stroke="#101b2b" stroke-width="6"/>
  <rect x="594" y="356" width="82" height="146" rx="6" fill="#dce6ea"/>
  <path d="M82 560h420c120 0 240 35 316 92H126c-40-28-54-60-44-92Z" fill="#c7ccd0"/>
  <path d="M78 560h424c118 0 229 32 315 90" fill="none" stroke="#949da5" stroke-width="8"/>
  <path d="M90 610h250M390 610h90M540 610h190" stroke="#ffffff" stroke-width="10" stroke-linecap="round"/>
  <g opacity=".95">
    <path d="M654 430c-56 22-112 51-168 86" stroke="#127fb8" stroke-width="10" stroke-linecap="round"/>
    <path d="M674 392c-72 16-146 43-222 82" stroke="#27a9e1" stroke-width="6" stroke-linecap="round"/>
    <path d="M694 360c-92 12-177 35-257 70" stroke="#68c4e8" stroke-width="4" stroke-linecap="round"/>
    <circle cx="501" cy="511" r="8" fill="#127fb8"/>
    <circle cx="540" cy="490" r="5" fill="#27a9e1"/>
    <circle cx="585" cy="466" r="4" fill="#68c4e8"/>
  </g>
  <path d="M704 344c26 12 46 34 54 64l-54 22-45-70Z" fill="#101b2b"/>
  <path d="M676 356 554 424" stroke="#101b2b" stroke-width="15" stroke-linecap="round"/>
  <path d="M552 424 512 448" stroke="#b9854f" stroke-width="17" stroke-linecap="round"/>
  <path d="M748 426c28 42 34 96 22 154" stroke="#101b2b" stroke-width="18" stroke-linecap="round"/>
  <path d="M716 420c-20 45-24 94-12 147" stroke="#101b2b" stroke-width="18" stroke-linecap="round"/>
  <circle cx="742" cy="326" r="28" fill="#b9854f"/>
  <path d="M710 322c6-32 28-50 65-44 8 33-13 58-65 44Z" fill="#101b2b"/>
</svg>
